<?xml version="1.0" encoding="UTF-8"?>
<!--Generator: Apple Native CoreSVG 232.5-->
<!DOCTYPE svg
PUBLIC "-//W3C//DTD SVG 1.1//EN"
       "http://www.w3.org/Graphics/SVG/1.1/DTD/svg11.dtd">
<svg version="1.1" xmlns="http://www.w3.org/2000/svg" xmlns:xlink="http://www.w3.org/1999/xlink" width="3300" height="2200">
 <!--glyph: "uni102086.medium", point size: 100.0, font version: "19.2d2e1", template writer version: "128"-->
 <style>.monochrome-0 {-sfsymbols-motion-group:1}
.monochrome-1 {opacity:0.0;-sfsymbols-clear-behind:true;-sfsymbols-motion-group:0}

.multicolor-0:tintColor {-sfsymbols-motion-group:1}
.multicolor-1:tintColor {opacity:0.0;-sfsymbols-clear-behind:true;-sfsymbols-motion-group:0}

.hierarchical-0:tertiary {-sfsymbols-motion-group:1}
.hierarchical-1:primary {-sfsymbols-motion-group:0}

.SFSymbolsPreviewWireframe {fill:none;opacity:1.0;stroke:black;stroke-width:0.5}
</style>
 <g id="Notes">
  <rect height="2200" id="artboard" style="fill:white;opacity:1" width="3300" x="0" y="0"/>
  <line style="fill:none;stroke:black;opacity:1;stroke-width:0.5;" x1="263" x2="3036" y1="292" y2="292"/>
  <text style="stroke:none;fill:black;font-family:sans-serif;font-size:13;font-weight:bold;" transform="matrix(1 0 0 1 263 322)">Weight/Scale Variations</text>
  <text style="stroke:none;fill:black;font-family:sans-serif;font-size:13;text-anchor:middle;" transform="matrix(1 0 0 1 559.711 322)">Ultralight</text>
  <text style="stroke:none;fill:black;font-family:sans-serif;font-size:13;text-anchor:middle;" transform="matrix(1 0 0 1 856.422 322)">Thin</text>
  <text style="stroke:none;fill:black;font-family:sans-serif;font-size:13;text-anchor:middle;" transform="matrix(1 0 0 1 1153.13 322)">Light</text>
  <text style="stroke:none;fill:black;font-family:sans-serif;font-size:13;text-anchor:middle;" transform="matrix(1 0 0 1 1449.84 322)">Regular</text>
  <text style="stroke:none;fill:black;font-family:sans-serif;font-size:13;text-anchor:middle;" transform="matrix(1 0 0 1 1746.56 322)">Medium</text>
  <text style="stroke:none;fill:black;font-family:sans-serif;font-size:13;text-anchor:middle;" transform="matrix(1 0 0 1 2043.27 322)">Semibold</text>
  <text style="stroke:none;fill:black;font-family:sans-serif;font-size:13;text-anchor:middle;" transform="matrix(1 0 0 1 2339.98 322)">Bold</text>
  <text style="stroke:none;fill:black;font-family:sans-serif;font-size:13;text-anchor:middle;" transform="matrix(1 0 0 1 2636.69 322)">Heavy</text>
  <text style="stroke:none;fill:black;font-family:sans-serif;font-size:13;text-anchor:middle;" transform="matrix(1 0 0 1 2933.4 322)">Black</text>
  <line style="fill:none;stroke:black;opacity:1;stroke-width:0.5;" x1="263" x2="3036" y1="1903" y2="1903"/>
  <g transform="matrix(0.2 0 0 0.2 263 1933)">
   <path d="m46.2402 4.15039c21.5332 0 39.4531-17.8711 39.4531-39.4043s-17.9688-39.4043-39.502-39.4043c-21.4844 0-39.3555 17.8711-39.3555 39.4043s17.9199 39.4043 39.4043 39.4043Zm0-7.42188c-17.7246 0-31.8848-14.209-31.8848-31.9824s14.1113-31.9824 31.8359-31.9824c17.7734 0 32.0312 14.209 32.0312 31.9824s-14.209 31.9824-31.9824 31.9824Zm-17.9688-31.9824c0 2.14844 1.51367 3.61328 3.75977 3.61328h10.498v10.5957c0 2.19727 1.46484 3.71094 3.61328 3.71094 2.24609 0 3.71094-1.51367 3.71094-3.71094v-10.5957h10.5957c2.19727 0 3.71094-1.46484 3.71094-3.61328 0-2.19727-1.51367-3.71094-3.71094-3.71094h-10.5957v-10.5469c0-2.24609-1.46484-3.75977-3.71094-3.75977-2.14844 0-3.61328 1.51367-3.61328 3.75977v10.5469h-10.498c-2.24609 0-3.75977 1.51367-3.75977 3.71094Z"/>
  </g>
  <g transform="matrix(0.2 0 0 0.2 281.506 1933)">
   <path d="m58.5449 14.5508c27.2461 0 49.8047-22.6074 49.8047-49.8047 0-27.2461-22.6074-49.8047-49.8535-49.8047-27.1973 0-49.7559 22.5586-49.7559 49.8047 0 27.1973 22.6074 49.8047 49.8047 49.8047Zm0-8.30078c-23.0469 0-41.4551-18.457-41.4551-41.5039s18.3594-41.5039 41.4062-41.5039 41.5527 18.457 41.5527 41.5039-18.457 41.5039-41.5039 41.5039Zm-22.6562-41.5039c0 2.39258 1.66016 4.00391 4.15039 4.00391h14.3555v14.4043c0 2.44141 1.66016 4.15039 4.05273 4.15039 2.44141 0 4.15039-1.66016 4.15039-4.15039v-14.4043h14.4043c2.44141 0 4.15039-1.61133 4.15039-4.00391 0-2.44141-1.70898-4.15039-4.15039-4.15039h-14.4043v-14.3555c0-2.49023-1.70898-4.19922-4.15039-4.19922-2.39258 0-4.05273 1.70898-4.05273 4.19922v14.3555h-14.3555c-2.49023 0-4.15039 1.70898-4.15039 4.15039Z"/>
  </g>
  <g transform="matrix(0.2 0 0 0.2 304.924 1933)">
   <path d="m74.8535 28.3203c34.8145 0 63.623-28.8086 63.623-63.5742 0-34.8145-28.8574-63.623-63.6719-63.623-34.7656 0-63.5254 28.8086-63.5254 63.623 0 34.7656 28.8086 63.5742 63.5742 63.5742Zm0-9.08203c-30.1758 0-54.4434-24.3164-54.4434-54.4922 0-30.2246 24.2188-54.4922 54.3945-54.4922 30.2246 0 54.541 24.2676 54.541 54.4922 0 30.1758-24.2676 54.4922-54.4922 54.4922Zm-28.8574-54.4922c0 2.58789 1.85547 4.39453 4.58984 4.39453h19.7266v19.7754c0 2.68555 1.85547 4.58984 4.44336 4.58984 2.68555 0 4.54102-1.85547 4.54102-4.58984v-19.7754h19.7754c2.68555 0 4.58984-1.80664 4.58984-4.39453 0-2.73438-1.85547-4.58984-4.58984-4.58984h-19.7754v-19.7266c0-2.73438-1.85547-4.63867-4.54102-4.63867-2.58789 0-4.44336 1.9043-4.44336 4.63867v19.7266h-19.7266c-2.73438 0-4.58984 1.85547-4.58984 4.58984Z"/>
  </g>
  <text style="stroke:none;fill:black;font-family:sans-serif;font-size:13;font-weight:bold;" transform="matrix(1 0 0 1 263 1953)">Design Variations</text>
  <text style="stroke:none;fill:black;font-family:sans-serif;font-size:13;" transform="matrix(1 0 0 1 263 1971)">Symbols are supported in up to nine weights and three scales.</text>
  <text style="stroke:none;fill:black;font-family:sans-serif;font-size:13;" transform="matrix(1 0 0 1 263 1989)">For optimal layout with text and other symbols, vertically align</text>
  <text style="stroke:none;fill:black;font-family:sans-serif;font-size:13;" transform="matrix(1 0 0 1 263 2007)">symbols with the adjacent text.</text>
  <line style="fill:none;stroke:#00AEEF;stroke-width:0.5;opacity:1.0;" x1="776" x2="776" y1="1919" y2="1933"/>
  <g transform="matrix(0.2 0 0 0.2 776 1933)">
   <path d="m16.5527 0.78125c2.58789 0 3.85742-0.976562 4.78516-3.71094l6.29883-17.2363h28.8086l6.29883 17.2363c0.927734 2.73438 2.19727 3.71094 4.73633 3.71094 2.58789 0 4.24805-1.5625 4.24805-4.00391 0-0.830078-0.146484-1.61133-0.537109-2.63672l-22.9004-60.9863c-1.12305-2.97852-3.125-4.49219-6.25-4.49219-3.02734 0-5.07812 1.46484-6.15234 4.44336l-22.9004 61.084c-0.390625 1.02539-0.537109 1.80664-0.537109 2.63672 0 2.44141 1.5625 3.95508 4.10156 3.95508Zm13.4766-28.3691 11.8652-32.8613h0.244141l11.8652 32.8613Z"/>
  </g>
  <line style="fill:none;stroke:#00AEEF;stroke-width:0.5;opacity:1.0;" x1="792.836" x2="792.836" y1="1919" y2="1933"/>
  <text style="stroke:none;fill:black;font-family:sans-serif;font-size:13;font-weight:bold;" transform="matrix(1 0 0 1 776 1953)">Margins</text>
  <text style="stroke:none;fill:black;font-family:sans-serif;font-size:13;" transform="matrix(1 0 0 1 776 1971)">Leading and trailing margins on the left and right side of each symbol</text>
  <text style="stroke:none;fill:black;font-family:sans-serif;font-size:13;" transform="matrix(1 0 0 1 776 1989)">can be adjusted by modifying the x-location of the margin guidelines.</text>
  <text style="stroke:none;fill:black;font-family:sans-serif;font-size:13;" transform="matrix(1 0 0 1 776 2007)">Modifications are automatically applied proportionally to all</text>
  <text style="stroke:none;fill:black;font-family:sans-serif;font-size:13;" transform="matrix(1 0 0 1 776 2025)">scales and weights.</text>
  <g transform="matrix(0.2 0 0 0.2 1289 1933)">
   <path d="m14.209 9.32617 8.49609 8.54492c4.29688 4.3457 9.22852 4.05273 13.8672-1.07422l53.4668-58.9355-4.83398-4.88281-53.0762 58.3984c-1.75781 2.00195-3.41797 2.49023-5.76172 0.146484l-5.85938-5.81055c-2.34375-2.29492-1.80664-4.00391 0.195312-5.81055l57.373-54.0039-4.88281-4.83398-57.959 54.4434c-4.93164 4.58984-5.32227 9.47266-1.02539 13.8184Zm32.0801-90.9668c-2.09961 2.05078-2.24609 4.93164-1.07422 6.88477 1.17188 1.80664 3.4668 2.97852 6.68945 2.14844 7.32422-1.70898 14.9414-2.00195 22.0703 2.68555l-2.92969 7.27539c-1.70898 4.15039-0.830078 7.08008 1.85547 9.81445l11.4746 11.5723c2.44141 2.44141 4.49219 2.53906 7.32422 2.05078l5.32227-0.976562 3.32031 3.36914-0.195312 2.7832c-0.195312 2.49023 0.439453 4.39453 2.88086 6.78711l3.80859 3.71094c2.39258 2.39258 5.46875 2.53906 7.8125 0.195312l14.5508-14.5996c2.34375-2.34375 2.24609-5.32227-0.146484-7.71484l-3.85742-3.80859c-2.39258-2.39258-4.24805-3.17383-6.64062-2.97852l-2.88086 0.244141-3.22266-3.17383 1.2207-5.61523c0.634766-2.83203-0.146484-5.0293-3.07617-7.95898l-10.9863-10.9375c-16.6992-16.6016-38.8672-16.2109-53.3203-1.75781Zm7.4707 1.85547c12.1582-8.88672 28.6133-7.37305 39.7461 3.75977l12.1582 12.0605c1.17188 1.17188 1.36719 2.09961 1.02539 3.80859l-1.61133 7.42188 7.51953 7.42188 4.93164-0.292969c1.26953-0.0488281 1.66016 0.0488281 2.63672 1.02539l2.88086 2.88086-12.207 12.207-2.88086-2.88086c-0.976562-0.976562-1.12305-1.36719-1.07422-2.68555l0.341797-4.88281-7.4707-7.42188-7.61719 1.26953c-1.61133 0.341797-2.34375 0.195312-3.56445-0.976562l-10.0098-10.0098c-1.26953-1.17188-1.41602-2.00195-0.634766-3.85742l4.39453-10.4492c-7.8125-7.27539-17.9688-10.4004-28.125-7.42188-0.78125 0.195312-1.07422-0.439453-0.439453-0.976562Z"/>
  </g>
  <text style="stroke:none;fill:black;font-family:sans-serif;font-size:13;font-weight:bold;" transform="matrix(1 0 0 1 1289 1953)">Exporting</text>
  <text style="stroke:none;fill:black;font-family:sans-serif;font-size:13;" transform="matrix(1 0 0 1 1289 1971)">Symbols should be outlined when exporting to ensure the</text>
  <text style="stroke:none;fill:black;font-family:sans-serif;font-size:13;" transform="matrix(1 0 0 1 1289 1989)">design is preserved when submitting to Xcode.</text>
  <text id="template-version" style="stroke:none;fill:black;font-family:sans-serif;font-size:13;text-anchor:end;" transform="matrix(1 0 0 1 3036 1933)">Template v.5.0</text>
  <text style="stroke:none;fill:black;font-family:sans-serif;font-size:13;text-anchor:end;" transform="matrix(1 0 0 1 3036 1951)">Requires Xcode 15 or greater</text>
  <text id="descriptive-name" style="stroke:none;fill:black;font-family:sans-serif;font-size:13;text-anchor:end;" transform="matrix(1 0 0 1 3036 1969)">Generated from brain.head.profile.fill</text>
  <text style="stroke:none;fill:black;font-family:sans-serif;font-size:13;text-anchor:end;" transform="matrix(1 0 0 1 3036 1987)">Typeset at 100.0 points</text>
  <text style="stroke:none;fill:black;font-family:sans-serif;font-size:13;" transform="matrix(1 0 0 1 263 726)">Small</text>
  <text style="stroke:none;fill:black;font-family:sans-serif;font-size:13;" transform="matrix(1 0 0 1 263 1156)">Medium</text>
  <text style="stroke:none;fill:black;font-family:sans-serif;font-size:13;" transform="matrix(1 0 0 1 263 1586)">Large</text>
 </g>
 <g id="Guides">
  <g id="H-reference" style="fill:#27AAE1;stroke:none;" transform="matrix(1 0 0 1 339 696)">
   <path d="M0.993654 0L3.63775 0L29.3281-67.1323L30.0303-67.1323L30.0303-70.459L28.1226-70.459ZM11.6885-24.4799L46.9815-24.4799L46.2315-26.7285L12.4385-26.7285ZM55.1196 0L57.7637 0L30.6382-70.459L29.4326-70.459L29.4326-67.1323Z"/>
  </g>
  <line id="Baseline-S" style="fill:none;stroke:#27AAE1;opacity:1;stroke-width:0.5;" x1="263" x2="3036" y1="696" y2="696"/>
  <line id="Capline-S" style="fill:none;stroke:#27AAE1;opacity:1;stroke-width:0.5;" x1="263" x2="3036" y1="625.541" y2="625.541"/>
  <g id="H-reference" style="fill:#27AAE1;stroke:none;" transform="matrix(1 0 0 1 339 1126)">
   <path d="M0.993654 0L3.63775 0L29.3281-67.1323L30.0303-67.1323L30.0303-70.459L28.1226-70.459ZM11.6885-24.4799L46.9815-24.4799L46.2315-26.7285L12.4385-26.7285ZM55.1196 0L57.7637 0L30.6382-70.459L29.4326-70.459L29.4326-67.1323Z"/>
  </g>
  <line id="Baseline-M" style="fill:none;stroke:#27AAE1;opacity:1;stroke-width:0.5;" x1="263" x2="3036" y1="1126" y2="1126"/>
  <line id="Capline-M" style="fill:none;stroke:#27AAE1;opacity:1;stroke-width:0.5;" x1="263" x2="3036" y1="1055.54" y2="1055.54"/>
  <g id="H-reference" style="fill:#27AAE1;stroke:none;" transform="matrix(1 0 0 1 339 1556)">
   <path d="M0.993654 0L3.63775 0L29.3281-67.1323L30.0303-67.1323L30.0303-70.459L28.1226-70.459ZM11.6885-24.4799L46.9815-24.4799L46.2315-26.7285L12.4385-26.7285ZM55.1196 0L57.7637 0L30.6382-70.459L29.4326-70.459L29.4326-67.1323Z"/>
  </g>
  <line id="Baseline-L" style="fill:none;stroke:#27AAE1;opacity:1;stroke-width:0.5;" x1="263" x2="3036" y1="1556" y2="1556"/>
  <line id="Capline-L" style="fill:none;stroke:#27AAE1;opacity:1;stroke-width:0.5;" x1="263" x2="3036" y1="1485.54" y2="1485.54"/>
  <line id="left-margin-Ultralight-S" style="fill:none;stroke:#00AEEF;stroke-width:0.5;opacity:1.0;" x1="515.209" x2="515.209" y1="600.785" y2="720.121"/>
  <line id="right-margin-Ultralight-S" style="fill:none;stroke:#00AEEF;stroke-width:0.5;opacity:1.0;" x1="604.213" x2="604.213" y1="600.785" y2="720.121"/>
  <line id="left-margin-Regular-S" style="fill:none;stroke:#00AEEF;stroke-width:0.5;opacity:1.0;" x1="1401.19" x2="1401.19" y1="600.785" y2="720.121"/>
  <line id="right-margin-Regular-S" style="fill:none;stroke:#00AEEF;stroke-width:0.5;opacity:1.0;" x1="1498.5" x2="1498.5" y1="600.785" y2="720.121"/>
  <line id="left-margin-Black-S" style="fill:none;stroke:#00AEEF;stroke-width:0.5;opacity:1.0;" x1="2881.79" x2="2881.79" y1="600.785" y2="720.121"/>
  <line id="right-margin-Black-S" style="fill:none;stroke:#00AEEF;stroke-width:0.5;opacity:1.0;" x1="2985.01" x2="2985.01" y1="600.785" y2="720.121"/>
 </g>
 <g id="Symbols">
  <g id="Black-S" transform="matrix(1 0 0 1 2881.79 696)">
   <path class="monochrome-0 multicolor-0:tintColor hierarchical-0:tertiary SFSymbolsPreviewWireframe" d="M58.1543 13.5254C74.0723 13.4766 83.9355 7.42188 83.9355-2.97852L83.9355-20.7031C89.9414-26.4648 93.457-35.4004 93.457-44.9707C93.457-68.4082 78.1738-84.0332 55.4199-84.0332C32.7148-84.0332 17.5293-68.7012 17.5293-45.8008C17.5293-44.873 17.5293-43.9941 17.5781-43.1641L11.6699-32.666C10.4492-30.4688 9.76562-28.1738 9.76562-26.0254C9.76562-22.3633 12.0605-19.1895 17.4805-18.5059L17.4805-15.5762C17.4805-6.49414 22.9004-1.26953 32.1289-1.26953L32.8613-1.26953L32.9102-0.927734C33.9355 8.30078 43.5059 13.5254 58.1543 13.5254Z"/>
   <path class="monochrome-1 multicolor-1:tintColor hierarchical-1:primary SFSymbolsPreviewWireframe" d="M40.3809-40.2344C35.5469-40.2344 31.6895-44.3359 31.6895-49.8535C31.6895-52.6367 32.4707-55.1758 33.8867-57.1777C35.2539-55.8105 37.207-55.127 39.502-55.127C40.918-55.127 42.041-56.25 42.041-57.666C42.041-59.0332 40.918-60.2051 39.502-60.2051C38.0371-60.2051 37.3047-61.2305 37.3047-62.5C37.3047-64.7461 39.5996-67.8223 44.6289-67.8223C45.0684-67.8223 45.4102-67.8223 45.8496-67.7734C45.7031-67.0898 45.6055-66.2598 45.6055-65.5273C45.6055-63.9648 46.6797-62.8418 48.0957-62.8418C49.5605-62.8418 50.5859-63.8672 50.5859-65.332C50.5859-67.9688 53.0273-70.0195 56.1523-70.0195C58.2031-70.0195 59.9121-69.0918 61.5234-67.5293C61.9141-67.5781 62.3047-67.5781 62.6953-67.5781C67.1875-67.6758 71.2402-63.9648 71.2402-59.6191C71.2402-50.1953 56.0059-50.4883 56.0059-38.2324C56.0059-37.7441 56.0059-37.3047 56.0547-36.8164C55.0781-36.7188 54.541-36.7188 54.1992-36.7188C52.0996-36.7188 50.0488-37.1094 48.291-37.8906C49.7559-39.4531 50.7324-41.4062 50.9766-43.7012C50.9766-44.0918 51.0254-44.3848 51.0254-44.7266C54.4922-46.0449 56.2012-48.7793 56.2012-52.7344C56.2012-54.1992 54.9316-55.3223 53.5156-55.3223C52.1484-55.3223 51.0742-54.1992 51.0742-52.7344C51.0742-51.2695 50.8301-50.2441 49.8047-49.6582C49.4141-50.2441 49.0234-50.7812 48.4863-51.1719C47.7539-51.7578 46.9727-52.002 46.3379-52.002C44.9707-52.002 43.8477-50.9277 43.8477-49.6582C43.8477-48.9746 44.1406-48.2422 44.873-47.6074C45.5566-46.9238 46.0449-45.9473 46.0449-45.0684C46.0449-42.2852 43.7012-40.2344 40.3809-40.2344ZM70.0684-29.4434C67.1875-29.4434 64.7949-31.7383 63.9648-35.0586L63.8184-35.0586C61.8652-35.0586 60.7422-36.5234 60.7422-38.4766C60.7422-45.6055 74.0723-47.8027 76.1719-58.0078C78.3203-56.25 79.5898-54.0527 79.5898-51.0742C79.5898-47.9004 77.2949-45.5566 73.7305-45.8984C72.3145-46.0449 71.0938-44.873 71.0938-43.4082C71.0938-42.041 72.168-40.9668 73.584-40.918C75.0488-40.7715 76.416-40.918 77.5879-41.1621C77.5879-40.918 77.5879-40.6738 77.5879-40.4297C77.5879-33.6914 74.4141-29.4434 70.0684-29.4434Z"/>
  </g>
  <g id="Regular-S" transform="matrix(1 0 0 1 1401.19 696)">
   <path class="monochrome-0 multicolor-0:tintColor hierarchical-0:tertiary SFSymbolsPreviewWireframe" d="M54.5898 10.9863C69.1406 10.9863 78.0273 5.81055 78.0273-3.22266L78.0273-21.8262C84.0332-27.1973 87.5488-35.7422 87.5488-45.0684C87.5488-67.0898 73.1934-81.7871 51.8555-81.7871C30.5664-81.7871 16.3086-67.3828 16.3086-45.8984C16.3086-44.7266 16.3574-43.75 16.4551-42.8223L11.7676-34.4727C10.4492-32.0801 9.76562-29.6875 9.76562-27.5391C9.76562-23.4863 12.207-20.166 16.3086-18.9453L16.3086-11.6699C16.3086-4.3457 21.582-0.78125 28.125-1.51367L31.6406-1.85547L31.5918-2.00195C32.3242 6.25 40.918 10.9863 54.5898 10.9863Z"/>
   <path class="monochrome-1 multicolor-1:tintColor hierarchical-1:primary SFSymbolsPreviewWireframe" d="M38.8184-40.1855C32.2754-40.1855 28.0762-45.3125 28.0762-51.8555C28.0762-54.1016 28.7598-56.25 29.9316-58.1543C31.1523-55.8105 33.5938-54.3457 36.7676-54.3457C37.9395-54.3457 38.916-55.3223 38.916-56.3965C38.916-57.5684 37.9883-58.4961 36.7676-58.4961C34.7656-58.4961 33.1543-60.3027 33.1543-62.5977C33.1543-66.3086 36.8652-69.1406 41.6016-69.1406C42.2363-69.1406 42.7734-69.0918 43.4082-69.043C43.0664-68.0664 42.627-67.041 42.5781-65.4785C42.5293-64.209 43.3594-63.2812 44.6289-63.2812C45.8496-63.2812 46.6797-64.1113 46.6797-65.3809C46.6797-68.75 49.2188-71.0938 52.8809-71.0938C54.9316-71.0938 57.3242-70.0684 59.0332-68.3594C59.3262-68.457 59.7168-68.5059 61.377-68.5059C65.7227-68.5059 69.1895-64.8926 69.1895-60.3516C69.1895-51.2695 54.3457-49.6094 54.3457-39.3066C54.3457-38.7695 54.4434-38.2812 54.6387-37.7441C53.5645-37.5488 52.4414-37.4512 51.4648-37.4512C49.3164-37.4512 47.3633-37.8418 45.6055-38.623C48.7793-40.4297 50.5859-43.6035 50.5859-47.4121C50.5859-48.4375 50.4883-49.4629 50.1953-50.3906C54.6387-51.3672 56.9336-54.2969 56.9336-58.8379C56.9336-59.9609 56.0059-60.9375 54.8828-60.9375C53.7598-60.9375 52.832-60.0098 52.832-58.8379C52.832-56.0059 51.2695-54.248 48.1445-53.9062C48.0957-54.0039 47.998-54.1016 47.9004-54.1504C47.4609-54.6387 46.875-54.7852 46.3379-54.7852C45.2637-54.7852 44.3848-54.0039 44.3848-52.8809C44.3848-52.3438 44.6289-51.5625 45.3613-50.8789C46.0938-50.1465 46.582-48.9746 46.582-47.5098C46.582-43.2129 43.3594-40.1855 38.8184-40.1855ZM68.2617-29.9316C65.332-29.9316 62.9395-32.373 62.2559-35.9375L61.7188-35.9375C59.2773-35.9375 57.959-37.4023 57.959-39.4531C57.959-47.0215 71.582-48.5352 72.8516-59.5703C75.4883-57.8125 77.0996-54.9805 77.0996-51.6113C77.0996-47.8516 74.3652-45.5566 70.166-45.9473C69.0918-46.0449 68.1641-45.0195 68.1641-43.8965C68.1641-42.8223 68.9453-41.9434 70.1172-41.8457C72.2168-41.6992 74.0723-41.9922 75.6836-42.627C75.6836-42.1387 75.6836-41.5527 75.6836-41.0645C75.6836-34.668 72.5586-29.9316 68.2617-29.9316Z"/>
  </g>
  <g id="Ultralight-S" transform="matrix(1 0 0 1 515.209 696)">
   <path class="monochrome-0 multicolor-0:tintColor hierarchical-0:tertiary SFSymbolsPreviewWireframe" d="M50.1851 6.71781C62.3292 6.71781 70.0806 2.3594 70.0806-4.53954L70.0806-23.4609C75.8594-28.0601 79.2388-35.8784 79.2388-44.6143C79.2388-64.229 66.5635-77.2461 47.4961-77.2461C28.6138-77.2461 15.9907-64.4766 15.9907-45.3535C15.9907-44.0454 15.9941-42.978 16.1372-41.9141L11.3589-33.2012C10.2676-31.2627 9.76562-29.5967 9.76562-27.7661C9.76562-24.3037 12.1162-21.3921 16.0815-20.9433L16.0815-13.4863C16.0815-8.43259 19.2207-5.50387 24.356-6.10006L30.1875-6.75973L30.1841-4.45408C30.2354 2.34476 38.0572 6.71781 50.1851 6.71781Z"/>
   <path class="monochrome-1 multicolor-1:tintColor hierarchical-1:primary SFSymbolsPreviewWireframe" d="M33.9595-40.5942C28.0523-40.5942 23.9439-44.9946 23.9439-51.1289C23.9439-53.8745 24.9908-56.6133 26.7075-58.6992C27.6104-55.9014 30.188-54.1187 33.6797-54.1187C34.2158-54.1187 34.6475-54.5049 34.6475-54.9888C34.6475-55.5703 34.2193-55.9986 33.6797-55.9986C30.5425-55.9986 28.2954-57.9414 28.2954-60.9629C28.2954-65.2188 31.6885-68.4141 36.1978-68.4141C37.105-68.4141 38.0054-68.3198 38.7764-68.0894C37.9805-66.7949 37.4956-65.27 37.4014-63.5259C37.3526-62.9375 37.7286-62.5547 38.3624-62.5547C38.9473-62.5547 39.2779-62.8853 39.2779-63.4282C39.5049-68.0234 42.9068-70.5034 47.4771-70.5034C50.2544-70.5034 52.6016-69.1602 53.8565-66.9517C54.7398-67.1856 55.6299-67.2798 56.836-67.2798C61.2725-67.2798 64.7393-64.0752 64.7393-59.9429C64.7393-51.0879 49.5323-49.1099 49.5323-40.0332C49.5323-39.1328 49.7207-38.2812 50.0977-37.4717C48.9781-37.3218 47.7642-37.2241 46.8785-37.2241C43.7764-37.2241 41.0967-38.1143 39.0665-39.7129C42.5582-41.1108 44.7281-44.103 44.7281-48.0024C44.7281-48.3013 44.7212-48.6001 44.6553-48.8467C48.5083-49.8687 50.5308-52.5259 50.4854-56.749C50.4854-57.2363 50.0572-57.668 49.5245-57.668C49.0371-57.668 48.6543-57.2398 48.6543-56.7036C48.6543-53.4175 47.2281-51.478 44.2393-50.5913C44.0088-51.461 43.3208-53.1025 42.4512-53.7417C42.1026-54.0029 41.8799-54.0586 41.6153-54.0586C41.086-54.0586 40.6612-53.6406 40.6612-53.1533C40.6612-52.9341 40.7691-52.6523 41.0474-52.4228C42.1885-51.2817 42.8584-49.6103 42.8584-48.0093C42.8584-43.6216 39.1817-40.5942 33.9595-40.5942ZM63.6299-28.2969C60.7456-28.2969 58.6709-30.8745 58.2598-34.9839L57.1778-34.9839C53.7373-34.9839 51.3746-37.0391 51.3746-39.998C51.3746-47.9751 66.1329-49.4434 66.585-59.8428C70.357-58.5845 72.7403-55.3892 72.7403-51.3389C72.7403-46.9434 69.5064-44.1489 64.6714-44.1763C64.2329-44.1831 63.7593-43.7026 63.7593-43.2607C63.7593-42.7769 64.1773-42.3066 64.668-42.2998C66.586-42.2895 68.3506-42.6733 69.8257-43.4443C69.8711-42.6836 69.8711-41.8252 69.8711-41.0645C69.8711-33.124 67.5181-28.2969 63.6299-28.2969Z"/>
  </g>
 </g>
</svg>
